<?xml version="1.0" encoding="utf-8"?>
<!-- Generator: Adobe Illustrator 15.0.0, SVG Export Plug-In . SVG Version: 6.00 Build 0)  -->
<!DOCTYPE svg PUBLIC "-//W3C//DTD SVG 1.1//EN" "http://www.w3.org/Graphics/SVG/1.1/DTD/svg11.dtd">
<svg version="1.1" id="Layer_1" xmlns="http://www.w3.org/2000/svg" xmlns:xlink="http://www.w3.org/1999/xlink" x="0px" y="0px"
	 width="29px" height="28.8px" viewBox="0 0 29 28.8" enable-background="new 0 0 29 28.8" xml:space="preserve">
<g>
	<path fill="#FFA000" d="M17.732,10.468L14.85,13.15l-2.675-5.396l1.385-3.103c0.35-0.622,0.922-0.623,1.272,0L17.732,10.468z"/>
	<polygon fill="#F57F17" points="14.85,13.15 4.077,23.172 12.174,7.755 	"/>
	<path fill="#FFCA28" d="M20.885,6.368c0.516-0.495,1.048-0.327,1.184,0.375l2.804,16.294l-9.295,5.571
		c-0.325,0.18-1.187,0.257-1.187,0.257s-0.786-0.094-1.086-0.26l-9.228-5.435L20.885,6.368z"/>
	<path fill="#FFA000" d="M12.174,7.755L4.077,23.172L7.684,0.639C7.817-0.063,8.216-0.13,8.573,0.49L12.174,7.755z"/>
</g>
</svg>
