<?xml version="1.0" encoding="utf-8"?>
<!-- Generator: Adobe Illustrator 15.0.0, SVG Export Plug-In . SVG Version: 6.00 Build 0)  -->
<!DOCTYPE svg PUBLIC "-//W3C//DTD SVG 1.1//EN" "http://www.w3.org/Graphics/SVG/1.1/DTD/svg11.dtd">
<svg version="1.1" id="Layer_1" xmlns="http://www.w3.org/2000/svg" xmlns:xlink="http://www.w3.org/1999/xlink" x="0px" y="0px"
	 width="72px" height="44px" viewBox="0 0 72 44" enable-background="new 0 0 72 44" xml:space="preserve">
<path fill="#FFFFFF" d="M45.436,1.182C16.293-3.7,0.872,13.897,0.872,13.897S11,8.669,25,7.047v29.08
	c-14-1.621-24.128-6.848-24.128-6.848s15.329,17.596,44.472,12.715C69.236,37.99,71.297,25.773,71.248,21.5
	C71.297,17.5,69.328,5.185,45.436,1.182z M33,36.6V6.576c3-0.007,6,0.133,8,0.458v29.107C39,36.467,36,36.607,33,36.6z M49,34.672
	V8.506C64,12.108,64.587,18.769,64.504,21.5C64.587,24.461,64,31.078,49,34.672z"/>
</svg>
