<?xml version="1.0" encoding="utf-8"?>
<!-- Generator: Adobe Illustrator 15.0.0, SVG Export Plug-In . SVG Version: 6.00 Build 0)  -->
<!DOCTYPE svg PUBLIC "-//W3C//DTD SVG 1.1//EN" "http://www.w3.org/Graphics/SVG/1.1/DTD/svg11.dtd">
<svg version="1.1" id="Layer_1" xmlns="http://www.w3.org/2000/svg" xmlns:xlink="http://www.w3.org/1999/xlink" x="0px" y="0px"
	 width="30px" height="16px" viewBox="0 0 30 16" enable-background="new 0 0 30 16" xml:space="preserve">
<g>
	<path fill="#EB7077" d="M7.405,0.803c0.108-0.185,0.25-0.361,0.453-0.449C7.94,0.34,8.023,0.348,8.107,0.348h4.098
		c-0.119,0.101-0.236,0.206-0.315,0.343c-0.21,0.344-0.352,0.728-0.482,1.111c-0.369,1.159-0.626,2.35-0.876,3.542
		c-0.112,0.539-0.221,1.082-0.322,1.622c-0.312,1.767-0.634,3.529-1.035,5.278c-0.191,0.808-0.387,1.614-0.685,2.393
		c-0.137,0.322-0.271,0.666-0.535,0.905c-0.062,0.054-0.123,0.123-0.21,0.112h-3.62c-0.247-0.007-0.489,0.015-0.735-0.012
		c0.163-0.126,0.308-0.278,0.402-0.46c0.271-0.517,0.441-1.078,0.604-1.636c0.253-0.896,0.457-1.807,0.648-2.715
		c0.12-0.598,0.261-1.19,0.348-1.792C5.489,8.37,5.638,7.707,5.758,7.041C5.946,6.06,6.145,5.079,6.365,4.104
		c0.178-0.76,0.358-1.517,0.602-2.259C7.086,1.487,7.217,1.133,7.405,0.803z"/>
	<path fill="#EB7077" d="M7.405,0.803l0.004,0.003c0.108-0.184,0.249-0.36,0.45-0.446L7.857,0.354L7.858,0.36
		C7.899,0.353,7.94,0.351,7.982,0.351s0.083,0.001,0.125,0.001h4.098V0.348l-0.004-0.005c-0.119,0.102-0.235,0.207-0.316,0.345
		l0.005,0.003l-0.005-0.003c-0.21,0.345-0.352,0.729-0.481,1.113l0,0c-0.369,1.158-0.626,2.35-0.876,3.541
		c-0.112,0.54-0.222,1.083-0.322,1.622c-0.312,1.767-0.634,3.53-1.036,5.279c-0.191,0.807-0.387,1.614-0.683,2.392l0.004,0.002
		l-0.004-0.002c-0.138,0.322-0.272,0.665-0.535,0.902c-0.057,0.052-0.114,0.113-0.188,0.113l-0.018-0.002l0,0h-3.62v0.006v-0.006
		c-0.039-0.001-0.078-0.001-0.116-0.001c-0.11,0-0.219,0.003-0.328,0.003c-0.096,0-0.193-0.003-0.29-0.012L3.39,15.642l0.004,0.005
		c0.163-0.126,0.308-0.28,0.402-0.462c0.272-0.519,0.442-1.079,0.605-1.638c0.254-0.897,0.456-1.806,0.648-2.714
		c0.12-0.598,0.261-1.191,0.348-1.793c0.097-0.67,0.246-1.332,0.365-1.998C5.951,6.061,6.15,5.08,6.371,4.106
		c0.178-0.761,0.359-1.517,0.601-2.259c0.12-0.358,0.25-0.713,0.438-1.042L7.405,0.803L7.399,0.801
		C7.211,1.13,7.081,1.485,6.961,1.844C6.719,2.586,6.538,3.343,6.36,4.104C6.139,5.077,5.94,6.059,5.752,7.04
		c-0.12,0.667-0.268,1.329-0.366,1.999C5.3,9.639,5.158,10.232,5.039,10.83c-0.192,0.908-0.395,1.817-0.648,2.714
		c-0.162,0.559-0.333,1.119-0.604,1.637c-0.094,0.18-0.238,0.331-0.4,0.457l-0.011,0.009l0.013,0.001
		c0.099,0.011,0.195,0.014,0.292,0.014c0.109,0,0.219-0.005,0.328-0.005c0.039,0,0.077,0.002,0.115,0.002h3.621v-0.005l0,0.005
		l0.019,0.001c0.081,0,0.139-0.064,0.196-0.114c0.265-0.24,0.4-0.584,0.537-0.906l0,0h0.001c0.297-0.779,0.492-1.587,0.684-2.394
		c0.402-1.749,0.724-3.513,1.036-5.279c0.101-0.539,0.209-1.083,0.322-1.622c0.25-1.19,0.506-2.382,0.875-3.54l-0.005-0.002
		l0.005,0.002c0.131-0.384,0.272-0.767,0.481-1.11l0,0l0,0c0.079-0.137,0.195-0.241,0.314-0.343l0.011-0.009H8.107
		c-0.042,0-0.084-0.002-0.125-0.002S7.898,0.342,7.856,0.349h0l0,0C7.65,0.437,7.509,0.615,7.399,0.8L7.405,0.803z"/>
	<path fill="#F6A2AD" d="M12.205,0.348c0.104,0,0.209-0.004,0.315,0c0.231,0.123,0.427,0.317,0.536,0.561
		C13.2,1.183,13.32,1.473,13.428,1.77c0.363,1.119,0.609,2.27,0.855,3.418c0.21,1.028,0.408,2.06,0.597,3.095
		c0.015,0.055-0.004,0.131,0.069,0.146c-0.261,1.36-0.517,2.726-0.843,4.076c-0.178,0.727-0.366,1.452-0.633,2.153
		c-0.145,0.352-0.293,0.735-0.601,0.984c-0.196,0.044-0.336-0.104-0.457-0.238c-0.206-0.264-0.333-0.576-0.456-0.887
		c-0.409-1.114-0.659-2.277-0.913-3.437c-0.192-0.9-0.362-1.81-0.539-2.714c-0.08-0.46-0.188-0.913-0.25-1.373
		c-0.011-0.006-0.037-0.021-0.048-0.028c0.102-0.54,0.21-1.083,0.322-1.622c0.25-1.192,0.507-2.382,0.876-3.542
		c0.13-0.383,0.271-0.767,0.482-1.111C11.969,0.553,12.086,0.448,12.205,0.348z"/>
	<path fill="#F6A2AD" d="M12.205,0.348v0.005c0.069,0,0.14-0.001,0.209-0.001c0.035,0,0.07,0,0.105,0.001V0.348l-0.003,0.004
		c0.231,0.123,0.425,0.317,0.533,0.559h0l0,0c0.145,0.275,0.264,0.565,0.372,0.861l0.005-0.002l-0.005,0.002
		c0.362,1.118,0.608,2.27,0.855,3.417c0.209,1.028,0.409,2.06,0.597,3.095v0.001l0,0c0.007,0.026,0.006,0.059,0.012,0.087
		c0.006,0.028,0.022,0.054,0.061,0.062l0-0.005l-0.005-0.002c-0.261,1.361-0.518,2.727-0.844,4.077
		c-0.177,0.727-0.365,1.451-0.633,2.153c-0.145,0.35-0.293,0.733-0.6,0.981l0.004,0.004l-0.001-0.004
		c-0.023,0.004-0.046,0.007-0.068,0.007c-0.157,0-0.278-0.127-0.383-0.244l-0.004,0.003l0.004-0.003
		c-0.206-0.264-0.332-0.574-0.455-0.887c-0.409-1.113-0.659-2.276-0.912-3.434c-0.192-0.902-0.362-1.811-0.539-2.716l-0.005,0.002
		l0.005-0.002c-0.08-0.46-0.188-0.912-0.25-1.372V6.99l-0.002-0.001c-0.012-0.008-0.037-0.022-0.048-0.029L10.21,6.965l0.006,0.001
		c0.101-0.539,0.209-1.083,0.322-1.622c0.25-1.19,0.506-2.382,0.875-3.54l-0.005-0.002l0.005,0.002
		c0.131-0.384,0.272-0.767,0.481-1.11l0,0l0,0c0.079-0.137,0.195-0.241,0.314-0.343L12.205,0.348v0.005V0.348l-0.004-0.005
		c-0.119,0.102-0.235,0.207-0.316,0.345l0.005,0.003l-0.005-0.003c-0.21,0.345-0.352,0.729-0.481,1.113l0,0
		c-0.369,1.158-0.626,2.35-0.876,3.541c-0.112,0.54-0.222,1.083-0.322,1.622l-0.001,0.003l0.003,0.002
		c0.011,0.007,0.037,0.022,0.047,0.029l0.004-0.005l-0.006,0.001c0.062,0.461,0.17,0.913,0.25,1.373l0,0l0,0
		c0.177,0.905,0.348,1.814,0.54,2.715c0.254,1.158,0.503,2.32,0.913,3.437c0.123,0.312,0.25,0.624,0.456,0.889h0.001l0,0
		c0.104,0.117,0.228,0.248,0.391,0.248c0.023,0,0.046-0.002,0.07-0.008h0.002l0-0.001c0.309-0.251,0.458-0.636,0.603-0.986
		c0.268-0.703,0.456-1.428,0.633-2.154c0.326-1.351,0.583-2.716,0.844-4.078l0-0.005L14.95,8.422
		c-0.034-0.007-0.045-0.026-0.052-0.053c-0.006-0.027-0.005-0.06-0.013-0.088L14.88,8.282l0.006,0
		c-0.188-1.036-0.388-2.068-0.598-3.096c-0.246-1.146-0.492-2.298-0.854-3.417h0V1.768c-0.108-0.297-0.228-0.587-0.373-0.862
		l-0.005,0.003l0.005-0.002c-0.109-0.244-0.306-0.44-0.538-0.564l-0.001,0H12.52C12.485,0.34,12.45,0.34,12.415,0.34
		c-0.07,0-0.14,0.002-0.209,0.002h-0.002l-0.002,0.001L12.205,0.348z"/>
	<path fill="#EB7077" d="M16.734,0.974c0.131-0.25,0.289-0.529,0.571-0.623c1.437-0.007,2.874-0.003,4.312-0.003
		c-0.134,0.133-0.274,0.267-0.365,0.438c-0.278,0.5-0.442,1.054-0.607,1.6c-0.428,1.506-0.729,3.045-1.014,4.584
		c-0.266,1.517-0.549,3.033-0.869,4.542c-0.167,0.761-0.342,1.518-0.563,2.268c-0.141,0.463-0.289,0.931-0.52,1.361
		c-0.113,0.194-0.244,0.408-0.457,0.51c-1.372,0.012-2.748,0-4.12,0.004c-0.076,0-0.156,0-0.232-0.012
		c0.308-0.249,0.456-0.633,0.601-0.984c0.267-0.701,0.456-1.427,0.633-2.153c0.326-1.351,0.583-2.716,0.843-4.076
		c0.315-1.757,0.645-3.512,1.064-5.246C16.209,2.433,16.396,1.672,16.734,0.974z"/>
	<path fill="#EB7077" d="M16.734,0.974l0.004,0.002c0.131-0.25,0.289-0.526,0.568-0.619l-0.001-0.006v0.006
		c0.72-0.004,1.437-0.005,2.156-0.005c0.718,0,1.437,0.001,2.155,0.001V0.348l-0.004-0.005c-0.135,0.134-0.275,0.269-0.367,0.439
		l0.006,0.003l-0.004-0.003c-0.28,0.5-0.443,1.055-0.609,1.602l0,0c-0.428,1.506-0.729,3.045-1.014,4.583
		c-0.264,1.517-0.547,3.034-0.869,4.544c-0.167,0.761-0.34,1.517-0.561,2.265c-0.143,0.465-0.291,0.931-0.521,1.361
		c-0.111,0.194-0.242,0.407-0.453,0.508l0.002,0.005v-0.006c-0.486,0.004-0.976,0.006-1.462,0.006c-0.673,0-1.346-0.003-2.019-0.003
		c-0.213,0-0.426,0.001-0.638,0.001c-0.076,0-0.156,0-0.231-0.01l0,0.004l0.003,0.005c0.309-0.251,0.458-0.636,0.603-0.986
		c0.268-0.703,0.456-1.428,0.633-2.154c0.326-1.351,0.583-2.716,0.844-4.078c0.315-1.755,0.645-3.511,1.064-5.246
		c0.196-0.749,0.384-1.509,0.72-2.207L16.734,0.974l0.004,0.002L16.734,0.974l-0.006-0.003c-0.337,0.699-0.525,1.46-0.721,2.21
		c-0.42,1.734-0.749,3.49-1.064,5.245c-0.261,1.361-0.518,2.727-0.844,4.077c-0.177,0.727-0.365,1.451-0.633,2.153
		c-0.145,0.35-0.293,0.733-0.6,0.981l-0.01,0.009l0.013,0.001c0.077,0.011,0.157,0.011,0.233,0.011c0.212,0,0.425,0,0.638,0
		c0.673,0,1.346,0.001,2.019,0.001c0.488,0,0.976,0,1.462-0.004h0.001h0.001c0.216-0.103,0.346-0.318,0.459-0.513
		c0.231-0.433,0.381-0.899,0.521-1.362c0.221-0.75,0.395-1.508,0.561-2.268c0.322-1.509,0.605-3.026,0.869-4.543
		c0.287-1.538,0.588-3.077,1.014-4.583l-0.004-0.002l0.004,0.002c0.167-0.547,0.33-1.101,0.607-1.599l0,0
		c0.09-0.169,0.232-0.302,0.365-0.437l0.009-0.009h-0.013c-0.719,0-1.438-0.001-2.155-0.001c-0.72,0-1.437,0.001-2.156,0.004h-0.001
		l0,0c-0.286,0.095-0.445,0.375-0.576,0.625l0,0l0,0L16.734,0.974z"/>
	<path fill="#F6A2AD" d="M21.617,0.348c0.115,0,0.235-0.004,0.352,0c0.188,0.097,0.322,0.264,0.441,0.434
		c0.195,0.311,0.318,0.662,0.445,1.006c0.301,0.923,0.525,1.871,0.731,2.82c0.275,1.278,0.515,2.563,0.749,3.848
		c0.059,0.308,0.115,0.619,0.152,0.931c0.014,0.014,0.043,0.043,0.054,0.055c-0.13,0.18-0.181,0.398-0.253,0.604
		c-0.228,0.734-0.377,1.494-0.503,2.252c-0.099,0.593-0.231,1.184-0.416,1.755c-0.138,0.425-0.305,0.844-0.58,1.198
		c-0.13,0.171-0.308,0.302-0.503,0.388c-0.3,0.032-0.479-0.258-0.622-0.47c-0.302-0.526-0.464-1.112-0.638-1.685
		c-0.572-2.117-0.944-4.285-1.348-6.439c-0.002-0.033-0.021-0.062-0.049-0.076c0.285-1.539,0.586-3.078,1.014-4.584
		c0.165-0.546,0.329-1.1,0.607-1.6C21.343,0.615,21.483,0.48,21.617,0.348z"/>
	<path fill="#F6A2AD" d="M21.617,0.348v0.005c0.077,0,0.156-0.001,0.234-0.001c0.039,0,0.078,0,0.117,0.001V0.348l-0.004,0.004
		c0.188,0.098,0.321,0.263,0.441,0.433l0.004-0.003l-0.004,0.003c0.195,0.311,0.318,0.662,0.443,1.005l0.006-0.001L22.85,1.79
		c0.301,0.923,0.525,1.872,0.731,2.82c0.275,1.277,0.515,2.563,0.75,3.848c0.058,0.308,0.116,0.619,0.152,0.929v0.002l0.001,0.002
		c0.014,0.015,0.043,0.043,0.055,0.055l0.003-0.004l-0.005-0.004c-0.13,0.183-0.182,0.4-0.253,0.605l0,0
		c-0.229,0.735-0.376,1.497-0.504,2.253c-0.099,0.594-0.231,1.184-0.416,1.755c-0.138,0.424-0.304,0.843-0.579,1.197
		c-0.129,0.17-0.306,0.299-0.5,0.385l0.002,0.006l-0.001-0.006c-0.015,0.002-0.03,0.003-0.046,0.003
		c-0.268,0-0.435-0.268-0.57-0.472l-0.005,0.005l0.005-0.003c-0.301-0.524-0.463-1.11-0.638-1.684l-0.005,0.002l0.005-0.002
		c-0.571-2.116-0.944-4.285-1.347-6.439L19.68,7.045l0.006-0.001c-0.004-0.034-0.023-0.065-0.054-0.081l-0.001,0.005l0.004,0
		c0.287-1.538,0.588-3.077,1.014-4.583l-0.004-0.002l0.004,0.002c0.167-0.547,0.33-1.101,0.607-1.599l0,0
		c0.09-0.169,0.232-0.302,0.365-0.437L21.617,0.348v0.005V0.348l-0.004-0.005c-0.135,0.134-0.275,0.269-0.367,0.439l0.006,0.003
		l-0.004-0.003c-0.28,0.5-0.443,1.055-0.609,1.602l0,0c-0.428,1.506-0.729,3.045-1.014,4.583l-0.002,0.005l0.004,0.001
		c0.027,0.014,0.045,0.041,0.049,0.072v0l0,0c0.401,2.154,0.773,4.322,1.346,6.44l0,0l0,0c0.175,0.573,0.338,1.16,0.638,1.685v0.002
		l0,0c0.138,0.202,0.305,0.475,0.581,0.475c0.017,0,0.031,0,0.047-0.002l0.002-0.001l0,0c0.196-0.087,0.375-0.219,0.506-0.389
		c0.275-0.355,0.441-0.776,0.58-1.199c0.184-0.573,0.318-1.163,0.416-1.758c0.127-0.756,0.275-1.517,0.504-2.25l-0.006-0.002
		l0.006,0.002c0.071-0.207,0.123-0.424,0.252-0.604l0.002-0.004l-0.002-0.004c-0.011-0.01-0.04-0.039-0.055-0.054l-0.004,0.004
		h0.006c-0.037-0.313-0.094-0.624-0.152-0.932c-0.236-1.285-0.475-2.57-0.749-3.848c-0.206-0.949-0.433-1.898-0.732-2.821l0,0l0,0
		c-0.126-0.344-0.249-0.695-0.445-1.007v0l0,0c-0.12-0.17-0.255-0.338-0.444-0.436l-0.001,0h-0.001
		C21.93,0.34,21.891,0.34,21.852,0.34c-0.078,0-0.157,0.002-0.234,0.002h-0.002l-0.002,0.001L21.617,0.348z"/>
	<path fill="#F6A2AD" d="M0.001,8.583c0.094-0.008,0.188-0.021,0.286-0.021h3.946c0.166,0.021,0.34,0.007,0.5,0.079
		c0.231,0.095,0.438,0.253,0.59,0.453c0.018-0.012,0.051-0.04,0.069-0.055c-0.087,0.602-0.229,1.194-0.348,1.792
		c-0.191,0.908-0.395,1.818-0.648,2.715c-0.163,0.558-0.333,1.119-0.604,1.636c-0.095,0.182-0.239,0.334-0.402,0.46
		c-0.062,0.012-0.108-0.032-0.159-0.064c-0.17-0.108-0.268-0.297-0.373-0.467C2.361,13.98,2.307,12.731,2,11.552
		c-0.155-0.59-0.347-1.178-0.63-1.72C1.196,9.506,0.982,9.195,0.704,8.945C0.497,8.778,0.259,8.645,0.001,8.583z"/>
	<path fill="#F6A2AD" d="M0.001,8.583v0.006C0.096,8.581,0.19,8.566,0.287,8.566h3.946V8.562L4.232,8.566
		C4.399,8.589,4.573,8.574,4.73,8.646l0,0l0,0c0.231,0.094,0.437,0.253,0.588,0.451l0.003,0.004l0.003-0.002
		c0.02-0.012,0.052-0.04,0.07-0.056L5.392,9.039L5.386,9.038C5.3,9.639,5.158,10.232,5.039,10.83
		c-0.192,0.908-0.395,1.817-0.648,2.714c-0.162,0.559-0.333,1.119-0.604,1.637c-0.094,0.18-0.238,0.331-0.4,0.457l0.003,0.004
		l-0.001-0.004l-0.018,0.001c-0.05,0-0.091-0.036-0.137-0.065c-0.168-0.108-0.267-0.296-0.371-0.466L2.858,15.11l0.004-0.002
		c-0.495-1.129-0.549-2.377-0.857-3.558c-0.155-0.591-0.348-1.178-0.63-1.722C1.2,9.503,0.986,9.191,0.708,8.941l0,0h0
		C0.5,8.774,0.261,8.639,0.003,8.578L0.001,8.583v0.006V8.583L0,8.589c0.256,0.061,0.494,0.194,0.7,0.36l0.004-0.004L0.7,8.949
		c0.277,0.249,0.491,0.56,0.664,0.886c0.283,0.542,0.474,1.128,0.63,1.719c0.308,1.179,0.362,2.429,0.858,3.56l0,0l0,0
		c0.105,0.17,0.203,0.358,0.375,0.469c0.045,0.027,0.087,0.067,0.143,0.067l0.021-0.002h0l0.002-0.001
		c0.163-0.126,0.308-0.28,0.402-0.462c0.272-0.519,0.442-1.079,0.605-1.638c0.254-0.897,0.456-1.806,0.648-2.714
		c0.12-0.598,0.261-1.191,0.348-1.793l0.002-0.015l-0.011,0.01C5.37,9.049,5.337,9.078,5.32,9.089l0.003,0.005L5.328,9.09
		c-0.153-0.199-0.36-0.36-0.592-0.454L4.733,8.641l0.002-0.004C4.574,8.563,4.399,8.578,4.234,8.556H4.233H0.287
		c-0.098,0-0.192,0.015-0.286,0.022L0,8.589L0.001,8.583z"/>
	<path fill="#EB7077" d="M24.861,8.959c0.227-0.257,0.568-0.419,0.912-0.405h2.969c0.412,0.007,0.828-0.015,1.242,0.011
		c-0.123,0.083-0.273,0.115-0.403,0.185c-0.451,0.206-0.839,0.55-1.085,0.981c-0.395,0.687-0.532,1.477-0.648,2.251
		c-0.115,0.761-0.112,1.546-0.358,2.284c-0.167,0.519-0.421,1.038-0.858,1.38c-1.361,0.015-2.722,0.003-4.08,0.007
		c-0.09,0-0.177,0.003-0.264-0.015c0.195-0.086,0.373-0.217,0.503-0.388c0.275-0.354,0.442-0.773,0.58-1.198
		c0.185-0.571,0.317-1.162,0.416-1.755c0.126-0.758,0.275-1.518,0.503-2.252c0.072-0.206,0.123-0.425,0.253-0.604
		C24.65,9.281,24.724,9.097,24.861,8.959z"/>
	<path fill="#EB7077" d="M24.861,8.959l0.004,0.004c0.217-0.245,0.538-0.404,0.866-0.404c0.013,0,0.028,0,0.041,0.001l0,0h2.97
		c0.064,0.001,0.13,0.001,0.194,0.001c0.187,0,0.37-0.003,0.557-0.003c0.163,0,0.327,0.002,0.491,0.013V8.565L29.98,8.56
		c-0.123,0.083-0.271,0.116-0.4,0.185l0.001,0.005L29.58,8.745c-0.455,0.207-0.843,0.551-1.089,0.984
		c-0.396,0.688-0.533,1.478-0.649,2.253c-0.115,0.762-0.112,1.547-0.358,2.283c-0.165,0.518-0.419,1.037-0.855,1.377l0.003,0.005
		v-0.006c-0.589,0.006-1.18,0.007-1.768,0.007c-0.553,0-1.106-0.001-1.658-0.001c-0.219,0-0.436,0.001-0.654,0.001
		c-0.025,0-0.051,0-0.076,0c-0.064,0-0.125-0.001-0.188-0.015v0.006l0.002,0.005c0.196-0.087,0.375-0.219,0.506-0.389
		c0.275-0.355,0.441-0.776,0.58-1.199c0.184-0.573,0.318-1.163,0.416-1.758c0.127-0.756,0.275-1.517,0.504-2.25l-0.006-0.002
		l0.006,0.002c0.071-0.207,0.123-0.424,0.252-0.604c0.109-0.161,0.182-0.345,0.317-0.48l0,0l0.001-0.001L24.861,8.959l-0.004-0.003
		c-0.139,0.138-0.211,0.324-0.32,0.482c-0.13,0.183-0.182,0.4-0.253,0.605l0,0c-0.229,0.735-0.376,1.497-0.504,2.253
		c-0.099,0.594-0.231,1.184-0.416,1.755c-0.138,0.424-0.304,0.843-0.579,1.197c-0.129,0.17-0.306,0.299-0.5,0.385l-0.017,0.008
		l0.018,0.003c0.063,0.013,0.124,0.016,0.188,0.016c0.025,0,0.051-0.001,0.076-0.001c0.219,0,0.436,0,0.654,0
		c0.552,0,1.105,0.001,1.658,0.001c0.588,0,1.179-0.001,1.768-0.007h0.003l0.001-0.002c0.439-0.341,0.693-0.864,0.86-1.383
		c0.246-0.739,0.241-1.524,0.357-2.285c0.116-0.774,0.253-1.563,0.647-2.25c0.246-0.429,0.633-0.771,1.084-0.979l0,0l0,0
		c0.131-0.068,0.278-0.101,0.402-0.185L30,8.56l-0.016,0c-0.164-0.011-0.328-0.013-0.491-0.013c-0.187,0-0.37,0.003-0.557,0.003
		c-0.064,0-0.129,0-0.194-0.001h-2.969v0.006V8.548c-0.014,0-0.029,0-0.042,0c-0.331,0-0.655,0.16-0.874,0.408L24.861,8.959
		l-0.004-0.003L24.861,8.959z"/>
</g>
</svg>
